<svg width="84" height="84" viewBox="0 0 84 84" fill="none" xmlns="http://www.w3.org/2000/svg">
<path d="M73.045 60.375L63.56 43.995C65.5009 40.4303 66.5121 36.4338 66.5 32.375C66.5 25.8772 63.9188 19.6455 59.3241 15.0509C54.7295 10.4562 48.4978 7.875 42 7.875C35.5022 7.875 29.2705 10.4562 24.6759 15.0509C20.0813 19.6455 17.5 25.8772 17.5 32.375C17.488 36.4338 18.4991 40.4303 20.44 43.995L10.955 60.375C10.6472 60.9081 10.4855 61.5129 10.4861 62.1285C10.4867 62.744 10.6496 63.3486 10.9585 63.881C11.2673 64.4135 11.7111 64.8551 12.2451 65.1613C12.7791 65.4675 13.3845 65.6274 14 65.625H24.045L29.155 74.235C29.3273 74.5203 29.5394 74.7796 29.785 75.005C30.4338 75.6304 31.2989 75.9814 32.2 75.985H32.69C33.2184 75.9127 33.7233 75.7206 34.1661 75.4233C34.6089 75.1261 34.9779 74.7316 35.245 74.27L42 62.65L48.755 74.375C49.026 74.8301 49.3968 75.2178 49.8393 75.5088C50.2819 75.7998 50.7848 75.9865 51.31 76.055H51.8C52.7133 76.0605 53.5925 75.7088 54.25 75.075C54.4854 74.8625 54.6862 74.6145 54.845 74.34L59.955 65.73H70C70.6167 65.7324 71.2232 65.5719 71.7579 65.2646C72.2926 64.9573 72.7366 64.5141 73.045 63.98C73.3721 63.4356 73.5448 62.8125 73.5448 62.1775C73.5448 61.5424 73.3721 60.9194 73.045 60.375ZM32.165 65.73L29.05 60.515C28.7433 59.9976 28.3084 59.568 27.7873 59.2676C27.2662 58.9672 26.6765 58.8061 26.075 58.8H20.02L25.025 50.12C28.4715 53.4411 32.8154 55.6799 37.52 56.56L32.165 65.73ZM42 49.875C38.5388 49.875 35.1554 48.8486 32.2775 46.9257C29.3997 45.0028 27.1567 42.2697 25.8321 39.072C24.5076 35.8743 24.161 32.3556 24.8363 28.9609C25.5115 25.5663 27.1782 22.448 29.6256 20.0006C32.0731 17.5532 35.1913 15.8865 38.5859 15.2113C41.9806 14.536 45.4993 14.8826 48.697 16.2071C51.8947 17.5316 54.6278 19.7747 56.5507 22.6525C58.4737 25.5304 59.5 28.9138 59.5 32.375C59.5 37.0163 57.6563 41.4675 54.3744 44.7494C51.0925 48.0313 46.6413 49.875 42 49.875ZM57.925 58.8C57.3236 58.8061 56.7338 58.9672 56.2127 59.2676C55.6916 59.568 55.2567 59.9976 54.95 60.515L51.835 65.73L46.515 56.455C51.2032 55.5569 55.5309 53.3201 58.975 50.015L63.98 58.695L57.925 58.8Z" fill="#FFDE17"/>
</svg>
