<svg width="74" height="74" viewBox="0 0 74 74" fill="none" xmlns="http://www.w3.org/2000/svg">
<path d="M15.4167 6.16663H21.5833V15.4166H15.4167V6.16663ZM27.75 6.16663H33.9167V15.4166H27.75V6.16663ZM40.0833 6.16663H46.25V15.4166H40.0833V6.16663ZM58.5833 27.75H52.4167V21.5833H9.25V55.5C9.25 60.5998 13.4002 64.75 18.5 64.75H43.1667C48.2665 64.75 52.4167 60.5998 52.4167 55.5H58.5833C61.9842 55.5 64.75 52.7342 64.75 49.3333V33.9166C64.75 30.5157 61.9842 27.75 58.5833 27.75ZM46.25 55.5C46.25 56.3177 45.9251 57.102 45.3469 57.6802C44.7687 58.2584 43.9844 58.5833 43.1667 58.5833H18.5C17.6822 58.5833 16.898 58.2584 16.3198 57.6802C15.7415 57.102 15.4167 56.3177 15.4167 55.5V27.75H46.25V55.5ZM52.4167 49.3333V33.9166H58.5833L58.5895 49.3333H52.4167Z" fill="#FFDE17"/>
</svg>
