<svg width="74" height="74" viewBox="0 0 74 74" fill="none" xmlns="http://www.w3.org/2000/svg">
<path d="M37 6.16663C19.9985 6.16663 6.16669 19.9985 6.16669 37C6.16669 54.0015 19.9985 67.8333 37 67.8333C54.0015 67.8333 67.8334 54.0015 67.8334 37C67.8334 19.9985 54.0015 6.16663 37 6.16663ZM37 61.6666C23.3994 61.6666 12.3334 50.6005 12.3334 37C12.3334 23.3994 23.3994 12.3333 37 12.3333C50.6006 12.3333 61.6667 23.3994 61.6667 37C61.6667 50.6005 50.6006 61.6666 37 61.6666Z" fill="#FFDE17"/>
<path d="M45.7228 45.7196C44.5957 46.843 43.2645 47.7409 41.8008 48.3651C39.1654 49.4777 36.2254 49.6401 33.4836 48.8246C30.7417 48.0091 28.3684 46.2663 26.7695 43.8943L21.6573 47.3445C22.9907 49.3121 24.687 51.0074 26.6554 52.3395C28.6585 53.6941 30.9092 54.6403 33.2784 55.1238C35.7352 55.6249 38.2679 55.6249 40.7247 55.1238C43.0937 54.6396 45.3442 53.6935 47.3477 52.3395C48.3128 51.6859 49.2347 50.9274 50.0795 50.0856C50.9182 49.25 51.6828 48.325 52.3427 47.3445L47.2305 43.8943C46.7874 44.5495 46.2825 45.1607 45.7228 45.7196Z" fill="#FFDE17"/>
<path d="M26.2083 37C28.7626 37 30.8333 34.9293 30.8333 32.375C30.8333 29.8207 28.7626 27.75 26.2083 27.75C23.654 27.75 21.5833 29.8207 21.5833 32.375C21.5833 34.9293 23.654 37 26.2083 37Z" fill="#FFDE17"/>
<path d="M47.7701 36.9568C50.3125 36.9568 52.3735 34.8958 52.3735 32.3534C52.3735 29.811 50.3125 27.75 47.7701 27.75C45.2277 27.75 43.1667 29.811 43.1667 32.3534C43.1667 34.8958 45.2277 36.9568 47.7701 36.9568Z" fill="#FFDE17"/>
</svg>
