<svg width="64" height="64" viewBox="0 0 64 64" fill="none" xmlns="http://www.w3.org/2000/svg">
<path d="M60.525 37.8751L53.7 12.2501C53.4791 11.4345 53.0056 10.7099 52.3474 10.18C51.6892 9.6502 50.8802 9.3424 50.0363 9.30076C49.1923 9.25912 48.3569 9.48578 47.6498 9.94825C46.9426 10.4107 46.4001 11.0852 46.1 11.8751L41.175 25.0001H22.825L17.9 11.8751C17.5999 11.0852 17.0573 10.4107 16.3502 9.94825C15.643 9.48578 14.8076 9.25912 13.9637 9.30076C13.1198 9.3424 12.3108 9.6502 11.6526 10.18C10.9944 10.7099 10.5209 11.4345 10.3 12.2501L3.47499 37.8751C3.2085 38.869 3.25517 39.9209 3.60863 40.8873C3.96209 41.8538 4.60512 42.6876 5.44999 43.2751L29.15 59.6751C29.9909 60.2458 30.9837 60.5509 32 60.5509C33.0162 60.5509 34.0091 60.2458 34.85 59.6751L58.55 43.2751C59.3948 42.6876 60.0379 41.8538 60.3913 40.8873C60.7448 39.9209 60.7915 38.869 60.525 37.8751ZM32 54.3501L9.44999 38.7251L14.475 19.8251L17.95 29.0501C18.1603 29.6231 18.5418 30.1175 19.0426 30.4664C19.5435 30.8152 20.1396 31.0015 20.75 31.0001H43.25C43.8604 31.0015 44.4564 30.8152 44.9573 30.4664C45.4582 30.1175 45.8397 29.6231 46.05 29.0501L49.525 19.8251L54.55 38.7251L32 54.3501Z" fill="black"/>
</svg>
