<svg width="56" height="56" viewBox="0 0 56 56" fill="none" xmlns="http://www.w3.org/2000/svg">
<path d="M25.6666 39.6667H42C42.6611 39.6667 43.2149 39.4427 43.6613 38.9947C44.1093 38.5483 44.3333 37.9945 44.3333 37.3334V28C44.3333 27.3389 44.1093 26.7844 43.6613 26.3364C43.2149 25.8899 42.6611 25.6667 42 25.6667H25.6666C25.0055 25.6667 24.4517 25.8899 24.0053 26.3364C23.5573 26.7844 23.3333 27.3389 23.3333 28V37.3334C23.3333 37.9945 23.5573 38.5483 24.0053 38.9947C24.4517 39.4427 25.0055 39.6667 25.6666 39.6667ZM9.33329 46.6667C8.04996 46.6667 6.95174 46.2102 6.03863 45.297C5.12396 44.3824 4.66663 43.2834 4.66663 42V14C4.66663 12.7167 5.12396 11.6185 6.03863 10.7054C6.95174 9.79071 8.04996 9.33337 9.33329 9.33337H46.6666C47.95 9.33337 49.049 9.79071 49.9636 10.7054C50.8767 11.6185 51.3333 12.7167 51.3333 14V42C51.3333 43.2834 50.8767 44.3824 49.9636 45.297C49.049 46.2102 47.95 46.6667 46.6666 46.6667H9.33329ZM9.33329 42H46.6666V14H9.33329V42Z" fill="black"/>
</svg>
