<svg width="90" height="90" viewBox="0 0 90 90" fill="none" xmlns="http://www.w3.org/2000/svg">
<path d="M18.4838 80.5687L40.4063 58.6462C42.0011 59.0736 43.6923 58.9629 45.2177 58.3312C46.7432 57.6994 48.0175 56.582 48.8431 55.1522C49.6687 53.7223 49.9994 52.06 49.7839 50.4231C49.5685 48.7862 48.8189 47.2661 47.6514 46.0986C46.4839 44.9311 44.9638 44.1815 43.3269 43.966C41.6899 43.7506 40.0276 44.0813 38.5978 44.9069C37.168 45.7325 36.0505 47.0068 35.4188 48.5322C34.7871 50.0576 34.6763 51.7489 35.1038 53.3437L13.1813 75.2662L9.2063 71.2912C19.8075 58.9162 23.7863 45.2137 29.0888 22.2337L52.9538 19.5824L74.1675 40.7962L71.5163 64.6612C48.5363 69.9637 34.8338 73.9424 22.4625 84.5474L18.4838 80.5687ZM62.2351 7.64991L86.0363 31.4474C86.2816 31.6923 86.4542 32.0003 86.5349 32.3373C86.6157 32.6743 86.6015 33.0271 86.4939 33.3565C86.3863 33.686 86.1895 33.9791 85.9254 34.2035C85.6612 34.4278 85.34 34.5746 84.9976 34.6274L79.47 35.4899L58.2601 14.2799L59.055 8.71116C59.1045 8.3668 59.2487 8.04298 59.4717 7.77592C59.6946 7.50886 59.9875 7.3091 60.3175 7.19897C60.6475 7.08884 61.0016 7.07269 61.3403 7.15233C61.6789 7.23197 61.9887 7.40425 62.2351 7.64991Z" fill="#FDE92B"/>
</svg>
