<svg width="504" height="517" viewBox="0 0 504 517" fill="none" xmlns="http://www.w3.org/2000/svg">
<path d="M128.627 512.494C135.769 510.29 139.773 502.716 137.57 495.576C135.367 488.437 127.791 484.436 120.649 486.64C113.507 488.844 109.504 496.418 111.707 503.557C113.91 510.696 121.485 514.697 128.627 512.494Z" fill="#FDE92B" fill-opacity="0.5"/>
<path d="M215.209 485.777C222.351 483.573 226.355 475.999 224.152 468.859C221.949 461.72 214.373 457.719 207.231 459.923C200.089 462.127 196.086 469.701 198.289 476.84C200.492 483.979 208.067 487.98 215.209 485.777Z" fill="#FDE92B" fill-opacity="0.5"/>
<path d="M301.792 459.06C308.933 456.856 312.937 449.282 310.734 442.142C308.531 435.003 300.956 431.002 293.814 433.206C286.672 435.41 282.668 442.984 284.871 450.123C287.074 457.262 294.65 461.263 301.792 459.06Z" fill="#FDE92B" fill-opacity="0.5"/>
<path d="M380.337 406.507C373.166 408.72 369.201 416.314 371.395 423.424C373.607 430.593 381.203 434.555 388.315 432.361C395.486 430.148 399.452 422.553 397.258 415.443C395.105 408.257 387.508 404.294 380.337 406.507Z" fill="#FDE92B" fill-opacity="0.5"/>
<path d="M466.92 379.79C459.749 382.003 455.783 389.597 457.977 396.707C460.189 403.876 467.785 407.838 474.898 405.644C482.069 403.431 486.034 395.836 483.84 388.727C481.628 381.558 474.091 377.577 466.92 379.79Z" fill="#FDE92B" fill-opacity="0.5"/>
<path d="M107.087 442.689C114.229 440.485 118.233 432.911 116.03 425.772C113.827 418.632 106.251 414.631 99.1092 416.835C91.9674 419.039 87.9636 426.613 90.1666 433.752C92.3696 440.891 99.9451 444.892 107.087 442.689Z" fill="#FDE92B" fill-opacity="0.5"/>
<path d="M193.669 415.972C200.811 413.768 204.815 406.194 202.612 399.055C200.409 391.915 192.834 387.914 185.692 390.118C178.55 392.322 174.546 399.896 176.749 407.035C178.952 414.174 186.528 418.175 193.669 415.972Z" fill="#FDE92B" fill-opacity="0.5"/>
<path d="M280.252 389.255C287.393 387.051 291.397 379.477 289.194 372.338C286.991 365.198 279.416 361.197 272.274 363.401C265.132 365.605 261.128 373.179 263.331 380.318C265.534 387.457 273.11 391.458 280.252 389.255Z" fill="#FDE92B" fill-opacity="0.5"/>
<path d="M358.798 336.702C351.627 338.915 347.661 346.51 349.855 353.619C352.067 360.788 359.663 364.75 366.775 362.556C373.947 360.343 377.912 352.748 375.718 345.639C373.565 338.452 365.969 334.489 358.798 336.702Z" fill="#FDE92B" fill-opacity="0.5"/>
<path d="M445.38 309.985C438.209 312.198 434.243 319.793 436.437 326.902C438.649 334.071 446.245 338.033 453.358 335.839C460.529 333.626 464.494 326.031 462.3 318.922C460.088 311.753 452.551 307.772 445.38 309.985Z" fill="#FDE92B" fill-opacity="0.5"/>
<path d="M77.5511 346.971C70.38 349.184 66.4146 356.779 68.6085 363.889C70.8205 371.057 78.4165 375.02 85.5288 372.825C92.7 370.612 96.6654 363.018 94.4715 355.908C92.3364 348.78 84.7222 344.759 77.5511 346.971Z" fill="#FDE92B" fill-opacity="0.5"/>
<path d="M164.134 320.255C156.963 322.467 152.997 330.062 155.191 337.172C157.403 344.34 164.999 348.303 172.111 346.108C179.224 343.913 183.248 336.301 181.054 329.191C178.86 322.081 171.305 318.042 164.134 320.255Z" fill="#FDE92B" fill-opacity="0.5"/>
<path d="M250.716 293.538C243.545 295.75 239.579 303.345 241.773 310.455C243.985 317.623 251.581 321.586 258.693 319.391C265.865 317.178 269.83 309.584 267.636 302.474C265.442 295.364 257.828 291.343 250.716 293.538Z" fill="#FDE92B" fill-opacity="0.5"/>
<path d="M337.239 266.839C330.068 269.051 326.103 276.646 328.296 283.756C330.508 290.924 338.105 294.887 345.217 292.692C352.388 290.479 356.353 282.885 354.16 275.775C352.024 268.647 344.41 264.626 337.239 266.839Z" fill="#FDE92B" fill-opacity="0.5"/>
<path d="M423.822 240.122C416.651 242.334 412.685 249.929 414.879 257.039C417.091 264.207 424.687 268.17 431.799 265.975C438.971 263.762 442.936 256.168 440.742 249.058C438.548 241.948 430.993 237.909 423.822 240.122Z" fill="#FDE92B" fill-opacity="0.5"/>
<path d="M510.404 213.405C503.233 215.618 499.268 223.212 501.462 230.322C503.674 237.49 511.269 241.453 518.382 239.258C525.494 237.064 529.518 229.451 527.325 222.341C525.131 215.232 517.575 211.192 510.404 213.405Z" fill="#FDE92B" fill-opacity="0.5"/>
<path d="M64.0069 303.079C71.1488 300.875 75.1525 293.301 72.9495 286.162C70.7465 279.023 63.171 275.022 56.0292 277.225C48.8873 279.429 44.8836 287.003 47.0865 294.143C49.2895 301.282 56.865 305.283 64.0069 303.079Z" fill="#FDE92B" fill-opacity="0.5"/>
<path d="M150.589 276.362C157.731 274.158 161.735 266.584 159.532 259.445C157.329 252.306 149.754 248.305 142.612 250.508C135.47 252.712 131.466 260.286 133.669 267.426C135.872 274.565 143.448 278.566 150.589 276.362Z" fill="#FDE92B" fill-opacity="0.5"/>
<path d="M237.172 249.645C244.314 247.441 248.318 239.867 246.115 232.728C243.912 225.589 236.336 221.588 229.194 223.791C222.052 225.995 218.049 233.569 220.252 240.709C222.455 247.848 230.03 251.849 237.172 249.645Z" fill="#FDE92B" fill-opacity="0.5"/>
<path d="M315.7 197.034C308.528 199.247 304.563 206.841 306.757 213.951C308.969 221.119 316.565 225.082 323.677 222.887C330.848 220.675 334.814 213.08 332.62 205.97C330.485 198.842 322.871 194.821 315.7 197.034Z" fill="#FDE92B" fill-opacity="0.5"/>
<path d="M402.282 170.317C395.111 172.53 391.145 180.124 393.339 187.234C395.551 194.402 403.147 198.365 410.259 196.17C417.431 193.958 421.396 186.363 419.202 179.253C417.008 172.144 409.453 168.104 402.282 170.317Z" fill="#FDE92B" fill-opacity="0.5"/>
<path d="M496.86 169.512C504.002 167.309 508.006 159.735 505.803 152.595C503.6 145.456 496.024 141.455 488.883 143.659C481.741 145.862 477.737 153.437 479.94 160.576C482.143 167.715 489.718 171.716 496.86 169.512Z" fill="#FDE92B" fill-opacity="0.5"/>
<path d="M42.4493 233.216C49.5912 231.012 53.5949 223.438 51.3919 216.298C49.1889 209.159 41.6134 205.158 34.4715 207.362C27.3297 209.566 23.3259 217.14 25.5289 224.279C27.7319 231.418 35.3074 235.419 42.4493 233.216Z" fill="#FDE92B" fill-opacity="0.5"/>
<path d="M129.031 206.499C136.173 204.295 140.177 196.721 137.974 189.581C135.771 182.442 128.195 178.441 121.054 180.645C113.912 182.849 109.908 190.423 112.111 197.562C114.314 204.701 121.889 208.702 129.031 206.499Z" fill="#FDE92B" fill-opacity="0.5"/>
<path d="M215.614 179.782C222.756 177.578 226.76 170.004 224.557 162.864C222.354 155.725 214.778 151.724 207.636 153.928C200.494 156.132 196.49 163.706 198.693 170.845C200.896 177.984 208.472 181.985 215.614 179.782Z" fill="#FDE92B" fill-opacity="0.5"/>
<path d="M294.16 127.229C286.989 129.442 283.024 137.037 285.217 144.146C287.411 151.256 295.025 155.277 302.138 153.083C309.309 150.87 313.274 143.275 311.08 136.166C308.887 129.056 301.331 125.016 294.16 127.229Z" fill="#FDE92B" fill-opacity="0.5"/>
<path d="M380.742 100.512C373.571 102.725 369.605 110.319 371.799 117.429C373.993 124.539 381.607 128.56 388.719 126.366C395.891 124.153 399.856 116.558 397.662 109.449C395.468 102.339 387.913 98.2992 380.742 100.512Z" fill="#FDE92B" fill-opacity="0.5"/>
<path d="M475.302 99.6487C482.444 97.4449 486.447 89.8709 484.244 82.7316C482.041 75.5923 474.466 71.5913 467.324 73.7951C460.182 75.9989 456.178 83.573 458.381 90.7122C460.584 97.8515 468.16 101.853 475.302 99.6487Z" fill="#FDE92B" fill-opacity="0.5"/>
<path d="M12.9315 137.557C5.76038 139.77 1.79499 147.365 3.98886 154.474C6.20087 161.643 13.7969 165.605 20.9092 163.411C28.0803 161.198 32.0457 153.603 29.8519 146.494C27.7168 139.366 20.1026 135.344 12.9315 137.557Z" fill="#FDE92B" fill-opacity="0.5"/>
<path d="M99.514 110.84C92.3429 113.053 88.3775 120.648 90.5714 127.757C92.7834 134.926 100.379 138.888 107.492 136.694C114.604 134.499 118.628 126.886 116.434 119.777C114.24 112.667 106.685 108.627 99.514 110.84Z" fill="#FDE92B" fill-opacity="0.5"/>
<path d="M186.096 84.1232C178.925 86.3361 174.96 93.9306 177.153 101.04C179.365 108.209 186.961 112.172 194.074 109.977C201.245 107.764 205.21 100.169 203.016 93.0597C200.823 85.95 193.208 81.9286 186.096 84.1232Z" fill="#FDE92B" fill-opacity="0.5"/>
<path d="M272.62 57.4243C265.449 59.6371 261.483 67.2317 263.677 74.3414C265.889 81.5099 273.485 85.4726 280.598 83.2779C287.769 81.0651 291.734 73.4705 289.54 66.3608C287.405 59.2329 279.791 55.2115 272.62 57.4243Z" fill="#FDE92B" fill-opacity="0.5"/>
<path d="M359.203 30.7074C352.031 32.9202 348.066 40.5147 350.26 47.6245C352.472 54.793 360.068 58.7556 367.18 56.5609C374.351 54.3481 378.317 46.7536 376.123 39.6439C373.929 32.5341 366.374 28.4945 359.203 30.7074Z" fill="#FDE92B" fill-opacity="0.5"/>
<path d="M445.784 3.99039C438.613 6.2032 434.648 13.7977 436.841 20.9075C439.053 28.076 446.649 32.0386 453.762 29.844C460.874 27.6493 464.898 20.0366 462.704 12.9268C460.511 5.81709 452.955 1.77757 445.784 3.99039Z" fill="#FDE92B" fill-opacity="0.5"/>
</svg>
