<svg width="399" height="647" viewBox="0 0 399 647" fill="none" xmlns="http://www.w3.org/2000/svg">
<path d="M523.551 446.987C591.804 336.579 557.598 191.766 447.15 123.538C336.701 55.3098 191.835 89.5035 123.583 199.912C55.3298 310.32 89.536 455.133 199.984 523.361C310.433 591.589 455.298 557.395 523.551 446.987Z" stroke="#FDE92B" stroke-width="3" stroke-miterlimit="10"/>
<path d="M491.056 426.913C548.219 334.445 519.57 213.163 427.069 156.021C334.567 98.8792 213.24 127.517 156.078 219.985C98.9153 312.453 127.563 433.736 220.065 490.877C312.567 548.019 433.894 519.381 491.056 426.913Z" stroke="#FDE92B" stroke-width="3" stroke-miterlimit="10"/>
<path d="M458.515 406.812C504.572 332.309 481.49 234.59 406.96 188.55C332.43 142.51 234.675 165.584 188.619 240.087C142.562 314.589 165.644 412.309 240.174 458.348C314.704 504.388 412.459 481.315 458.515 406.812Z" stroke="#FDE92B" stroke-width="3" stroke-miterlimit="10"/>
<path d="M323.531 443.855C390.015 443.855 443.911 389.978 443.911 323.518C443.911 257.058 390.015 203.182 323.531 203.182C257.047 203.182 203.151 257.058 203.151 323.518C203.151 389.978 257.047 443.855 323.531 443.855Z" stroke="#FDE92B" stroke-width="3" stroke-miterlimit="10"/>
<path d="M323.531 405.671C368.919 405.671 405.713 368.89 405.713 323.519C405.713 278.147 368.919 241.366 323.531 241.366C278.143 241.366 241.349 278.147 241.349 323.519C241.349 368.89 278.143 405.671 323.531 405.671Z" stroke="#FDE92B" stroke-width="3" stroke-miterlimit="10"/>
</svg>
