<svg width="323" height="323" viewBox="0 0 323 323" fill="none" xmlns="http://www.w3.org/2000/svg">
<path d="M11.1301 322.706C17.277 322.706 22.2601 317.724 22.2601 311.58C22.2601 305.435 17.277 300.454 11.1301 300.454C4.98309 300.454 0 305.435 0 311.58C0 317.724 4.98309 322.706 11.1301 322.706Z" fill="#FDE92B" fill-opacity="0.5"/>
<path d="M85.6511 322.706C91.798 322.706 96.7811 317.724 96.7811 311.58C96.7811 305.435 91.798 300.454 85.6511 300.454C79.5041 300.454 74.521 305.435 74.521 311.58C74.521 317.724 79.5041 322.706 85.6511 322.706Z" fill="#FDE92B" fill-opacity="0.5"/>
<path d="M160.172 322.706C166.319 322.706 171.302 317.724 171.302 311.58C171.302 305.435 166.319 300.454 160.172 300.454C154.025 300.454 149.042 305.435 149.042 311.58C149.042 317.724 154.025 322.706 160.172 322.706Z" fill="#FDE92B" fill-opacity="0.5"/>
<path d="M234.643 300.454C228.47 300.454 223.512 305.46 223.512 311.58C223.512 317.75 228.521 322.706 234.643 322.706C240.815 322.706 245.773 317.699 245.773 311.58C245.823 305.41 240.815 300.454 234.643 300.454Z" fill="#FDE92B" fill-opacity="0.5"/>
<path d="M309.163 300.454C302.991 300.454 298.033 305.46 298.033 311.58C298.033 317.75 303.042 322.706 309.163 322.706C315.336 322.706 320.293 317.699 320.293 311.58C320.293 305.41 315.336 300.454 309.163 300.454Z" fill="#FDE92B" fill-opacity="0.5"/>
<path d="M11.1301 262.625C17.277 262.625 22.2601 257.644 22.2601 251.499C22.2601 245.354 17.277 240.373 11.1301 240.373C4.98309 240.373 0 245.354 0 251.499C0 257.644 4.98309 262.625 11.1301 262.625Z" fill="#FDE92B" fill-opacity="0.5"/>
<path d="M85.6511 262.625C91.798 262.625 96.7811 257.644 96.7811 251.499C96.7811 245.354 91.798 240.373 85.6511 240.373C79.5041 240.373 74.521 245.354 74.521 251.499C74.521 257.644 79.5041 262.625 85.6511 262.625Z" fill="#FDE92B" fill-opacity="0.5"/>
<path d="M160.172 262.625C166.319 262.625 171.302 257.644 171.302 251.499C171.302 245.354 166.319 240.373 160.172 240.373C154.025 240.373 149.042 245.354 149.042 251.499C149.042 257.644 154.025 262.625 160.172 262.625Z" fill="#FDE92B" fill-opacity="0.5"/>
<path d="M234.643 240.373C228.47 240.373 223.512 245.38 223.512 251.499C223.512 257.669 228.521 262.625 234.643 262.625C240.815 262.625 245.773 257.618 245.773 251.499C245.823 245.329 240.815 240.373 234.643 240.373Z" fill="#FDE92B" fill-opacity="0.5"/>
<path d="M309.163 240.373C302.991 240.373 298.033 245.38 298.033 251.499C298.033 257.669 303.042 262.625 309.163 262.625C315.336 262.625 320.293 257.618 320.293 251.499C320.293 245.329 315.336 240.373 309.163 240.373Z" fill="#FDE92B" fill-opacity="0.5"/>
<path d="M11.1301 180.242C4.95793 180.242 0 185.249 0 191.368C0 197.538 5.00852 202.494 11.1301 202.494C17.3022 202.494 22.2601 197.487 22.2601 191.368C22.3107 185.249 17.3022 180.242 11.1301 180.242Z" fill="#FDE92B" fill-opacity="0.5"/>
<path d="M85.6511 180.242C79.4789 180.242 74.521 185.249 74.521 191.368C74.521 197.538 79.5295 202.494 85.6511 202.494C91.7726 202.494 96.7811 197.487 96.7811 191.368C96.7811 185.249 91.8232 180.242 85.6511 180.242Z" fill="#FDE92B" fill-opacity="0.5"/>
<path d="M160.172 180.242C154 180.242 149.042 185.249 149.042 191.368C149.042 197.538 154.05 202.494 160.172 202.494C166.344 202.494 171.302 197.487 171.302 191.368C171.302 185.249 166.293 180.242 160.172 180.242Z" fill="#FDE92B" fill-opacity="0.5"/>
<path d="M234.643 180.242C228.47 180.242 223.512 185.249 223.512 191.368C223.512 197.538 228.521 202.494 234.643 202.494C240.815 202.494 245.773 197.487 245.773 191.368C245.823 185.249 240.815 180.242 234.643 180.242Z" fill="#FDE92B" fill-opacity="0.5"/>
<path d="M309.163 180.242C302.991 180.242 298.033 185.249 298.033 191.368C298.033 197.538 303.042 202.494 309.163 202.494C315.336 202.494 320.293 197.487 320.293 191.368C320.293 185.249 315.336 180.242 309.163 180.242Z" fill="#FDE92B" fill-opacity="0.5"/>
<path d="M11.1301 142.464C17.277 142.464 22.2601 137.483 22.2601 131.338C22.2601 125.193 17.277 120.212 11.1301 120.212C4.98309 120.212 0 125.193 0 131.338C0 137.483 4.98309 142.464 11.1301 142.464Z" fill="#FDE92B" fill-opacity="0.5"/>
<path d="M85.6511 142.464C91.798 142.464 96.7811 137.483 96.7811 131.338C96.7811 125.193 91.798 120.212 85.6511 120.212C79.5041 120.212 74.521 125.193 74.521 131.338C74.521 137.483 79.5041 142.464 85.6511 142.464Z" fill="#FDE92B" fill-opacity="0.5"/>
<path d="M160.172 142.464C166.319 142.464 171.302 137.483 171.302 131.338C171.302 125.193 166.319 120.212 160.172 120.212C154.025 120.212 149.042 125.193 149.042 131.338C149.042 137.483 154.025 142.464 160.172 142.464Z" fill="#FDE92B" fill-opacity="0.5"/>
<path d="M234.643 120.161C228.47 120.161 223.512 125.168 223.512 131.287C223.512 137.457 228.521 142.413 234.643 142.413C240.815 142.413 245.773 137.407 245.773 131.287C245.823 125.168 240.815 120.161 234.643 120.161Z" fill="#FDE92B" fill-opacity="0.5"/>
<path d="M309.163 120.161C302.991 120.161 298.033 125.168 298.033 131.287C298.033 137.457 303.042 142.413 309.163 142.413C315.336 142.413 320.293 137.407 320.293 131.287C320.293 125.168 315.336 120.161 309.163 120.161Z" fill="#FDE92B" fill-opacity="0.5"/>
<path d="M11.1301 82.3326C17.277 82.3326 22.2601 77.3514 22.2601 71.2066C22.2601 65.0619 17.277 60.0805 11.1301 60.0805C4.98309 60.0805 0 65.0619 0 71.2066C0 77.3514 4.98309 82.3326 11.1301 82.3326Z" fill="#FDE92B" fill-opacity="0.5"/>
<path d="M85.6511 82.3326C91.798 82.3326 96.7811 77.3514 96.7811 71.2066C96.7811 65.0619 91.798 60.0805 85.6511 60.0805C79.5041 60.0805 74.521 65.0619 74.521 71.2066C74.521 77.3514 79.5041 82.3326 85.6511 82.3326Z" fill="#FDE92B" fill-opacity="0.5"/>
<path d="M160.172 82.3326C166.319 82.3326 171.302 77.3514 171.302 71.2066C171.302 65.0619 166.319 60.0805 160.172 60.0805C154.025 60.0805 149.042 65.0619 149.042 71.2066C149.042 77.3514 154.025 82.3326 160.172 82.3326Z" fill="#FDE92B" fill-opacity="0.5"/>
<path d="M234.643 60.0805C228.47 60.0805 223.512 65.0873 223.512 71.2066C223.512 77.3259 228.521 82.3326 234.643 82.3326C240.815 82.3326 245.773 77.3259 245.773 71.2066C245.773 65.0873 240.815 60.0805 234.643 60.0805Z" fill="#FDE92B" fill-opacity="0.5"/>
<path d="M309.163 60.0805C302.991 60.0805 298.033 65.0873 298.033 71.2066C298.033 77.3259 303.042 82.3326 309.163 82.3326C315.336 82.3326 320.293 77.3259 320.293 71.2066C320.293 65.0873 315.336 60.0805 309.163 60.0805Z" fill="#FDE92B" fill-opacity="0.5"/>
<path d="M11.1301 0C4.95793 0 0 5.0067 0 11.126C0 17.2959 5.00852 22.252 11.1301 22.252C17.3022 22.252 22.2601 17.2453 22.2601 11.126C22.3107 5.0067 17.3022 0 11.1301 0Z" fill="#FDE92B" fill-opacity="0.5"/>
<path d="M85.6511 0C79.4789 0 74.521 5.0067 74.521 11.126C74.521 17.2959 79.5295 22.252 85.6511 22.252C91.7726 22.252 96.7811 17.2453 96.7811 11.126C96.7811 5.0067 91.8232 0 85.6511 0Z" fill="#FDE92B" fill-opacity="0.5"/>
<path d="M160.172 0C154 0 149.042 5.0067 149.042 11.126C149.042 17.2959 154.05 22.252 160.172 22.252C166.344 22.252 171.302 17.2453 171.302 11.126C171.302 5.0067 166.293 0 160.172 0Z" fill="#FDE92B" fill-opacity="0.5"/>
<path d="M234.643 0C228.47 0 223.512 5.0067 223.512 11.126C223.512 17.2959 228.521 22.252 234.643 22.252C240.815 22.252 245.773 17.2453 245.773 11.126C245.823 5.0067 240.815 0 234.643 0Z" fill="#FDE92B" fill-opacity="0.5"/>
<path d="M309.163 0C302.991 0 298.033 5.0067 298.033 11.126C298.033 17.2959 303.042 22.252 309.163 22.252C315.336 22.252 320.293 17.2453 320.293 11.126C320.293 5.0067 315.336 0 309.163 0Z" fill="#FDE92B" fill-opacity="0.5"/>
</svg>
