<svg width="481" height="437" viewBox="0 0 481 437" fill="none" xmlns="http://www.w3.org/2000/svg">
<path d="M118.849 432.809C124.639 430.745 127.66 424.379 125.597 418.592C123.533 412.804 117.167 409.785 111.377 411.849C105.587 413.913 102.566 420.279 104.629 426.067C106.692 431.854 113.059 434.873 118.849 432.809Z" fill="#FDE92B" fill-opacity="0.5"/>
<path d="M189.043 407.785C194.833 405.721 197.854 399.355 195.79 393.567C193.727 387.779 187.36 384.761 181.57 386.825C175.78 388.889 172.759 395.254 174.823 401.042C176.886 406.83 183.253 409.849 189.043 407.785Z" fill="#FDE92B" fill-opacity="0.5"/>
<path d="M259.236 382.76C265.026 380.696 268.047 374.331 265.984 368.543C263.921 362.755 257.554 359.736 251.764 361.8C245.974 363.865 242.953 370.23 245.016 376.018C247.08 381.806 253.446 384.825 259.236 382.76Z" fill="#FDE92B" fill-opacity="0.5"/>
<path d="M321.91 336.793C316.097 338.866 313.108 345.247 315.163 351.011C317.235 356.822 323.617 359.809 329.383 357.753C335.196 355.681 338.185 349.3 336.13 343.536C334.106 337.707 327.724 334.721 321.91 336.793Z" fill="#FDE92B" fill-opacity="0.5"/>
<path d="M392.104 311.769C386.29 313.841 383.301 320.222 385.356 325.986C387.428 331.798 393.81 334.784 399.576 332.729C405.39 330.656 408.379 324.275 406.324 318.511C404.252 312.7 397.918 309.696 392.104 311.769Z" fill="#FDE92B" fill-opacity="0.5"/>
<path d="M469.77 307.705C475.56 305.64 478.581 299.275 476.518 293.487C474.454 287.699 468.088 284.68 462.298 286.745C456.508 288.809 453.487 295.174 455.55 300.962C457.614 306.75 463.98 309.769 469.77 307.705Z" fill="#FDE92B" fill-opacity="0.5"/>
<path d="M98.6738 376.217C104.464 374.153 107.485 367.788 105.421 362C103.358 356.212 96.9916 353.193 91.2016 355.257C85.4115 357.321 82.3905 363.687 84.4539 369.475C86.5173 375.263 92.8838 378.281 98.6738 376.217Z" fill="#FDE92B" fill-opacity="0.5"/>
<path d="M168.867 351.193C174.657 349.129 177.678 342.763 175.615 336.975C173.552 331.187 167.185 328.169 161.395 330.233C155.605 332.297 152.584 338.662 154.648 344.45C156.711 350.238 163.077 353.257 168.867 351.193Z" fill="#FDE92B" fill-opacity="0.5"/>
<path d="M239.061 326.169C244.851 324.104 247.872 317.739 245.809 311.951C243.746 306.163 237.379 303.144 231.589 305.209C225.799 307.273 222.778 313.638 224.841 319.426C226.905 325.214 233.271 328.233 239.061 326.169Z" fill="#FDE92B" fill-opacity="0.5"/>
<path d="M301.735 280.201C295.921 282.274 292.932 288.655 294.987 294.419C297.059 300.23 303.441 303.217 309.207 301.161C315.021 299.089 318.01 292.708 315.955 286.944C313.931 281.115 307.549 278.129 301.735 280.201Z" fill="#FDE92B" fill-opacity="0.5"/>
<path d="M371.929 255.177C366.115 257.25 363.126 263.63 365.181 269.394C367.253 275.206 373.635 278.193 379.401 276.137C385.215 274.064 388.204 267.683 386.149 261.919C384.077 256.108 377.743 253.104 371.929 255.177Z" fill="#FDE92B" fill-opacity="0.5"/>
<path d="M449.595 251.113C455.385 249.048 458.406 242.683 456.342 236.895C454.279 231.107 447.912 228.089 442.122 230.153C436.332 232.217 433.311 238.582 435.375 244.37C437.438 250.158 443.805 253.177 449.595 251.113Z" fill="#FDE92B" fill-opacity="0.5"/>
<path d="M71.0094 298.618C65.1957 300.69 62.2069 307.071 64.2618 312.835C66.3336 318.647 72.7156 321.633 78.4817 319.578C84.2954 317.505 87.2842 311.124 85.2293 305.36C83.2221 299.579 76.8232 296.545 71.0094 298.618Z" fill="#FDE92B" fill-opacity="0.5"/>
<path d="M141.203 273.593C135.389 275.666 132.4 282.047 134.455 287.811C136.527 293.622 142.909 296.609 148.675 294.553C154.441 292.498 157.478 286.1 155.423 280.336C153.368 274.572 147.017 271.521 141.203 273.593Z" fill="#FDE92B" fill-opacity="0.5"/>
<path d="M211.397 248.569C205.583 250.642 202.594 257.023 204.649 262.787C206.721 268.598 213.103 271.585 218.869 269.529C224.683 267.456 227.672 261.076 225.617 255.312C223.562 249.548 217.163 246.513 211.397 248.569Z" fill="#FDE92B" fill-opacity="0.5"/>
<path d="M281.543 223.562C275.729 225.634 272.74 232.015 274.795 237.779C276.867 243.591 283.249 246.577 289.015 244.522C294.829 242.449 297.818 236.068 295.763 230.304C293.756 224.523 287.357 221.489 281.543 223.562Z" fill="#FDE92B" fill-opacity="0.5"/>
<path d="M351.737 198.537C345.923 200.61 342.934 206.991 344.989 212.755C347.061 218.567 353.443 221.553 359.209 219.497C365.023 217.425 368.012 211.044 365.957 205.28C363.902 199.516 357.551 196.465 351.737 198.537Z" fill="#FDE92B" fill-opacity="0.5"/>
<path d="M421.93 173.513C416.116 175.586 413.128 181.967 415.183 187.731C417.255 193.542 423.636 196.529 429.403 194.473C435.169 192.418 438.205 186.02 436.15 180.256C434.095 174.492 427.744 171.441 421.93 173.513Z" fill="#FDE92B" fill-opacity="0.5"/>
<path d="M58.3235 263.033C64.1136 260.969 67.1346 254.604 65.0711 248.816C63.0077 243.028 56.6412 240.009 50.8512 242.073C45.0612 244.138 42.0402 250.503 44.1036 256.291C46.167 262.079 52.5335 265.098 58.3235 263.033Z" fill="#FDE92B" fill-opacity="0.5"/>
<path d="M128.517 238.009C134.307 235.945 137.328 229.58 135.265 223.792C133.201 218.004 126.835 214.985 121.045 217.049C115.255 219.113 112.234 225.479 114.297 231.267C116.361 237.055 122.727 240.073 128.517 238.009Z" fill="#FDE92B" fill-opacity="0.5"/>
<path d="M198.711 212.985C204.501 210.921 207.522 204.555 205.458 198.767C203.395 192.979 197.028 189.961 191.238 192.025C185.448 194.089 182.427 200.454 184.491 206.242C186.554 212.03 192.921 215.049 198.711 212.985Z" fill="#FDE92B" fill-opacity="0.5"/>
<path d="M261.368 166.97C255.554 169.042 252.565 175.423 254.62 181.187C256.692 186.999 263.074 189.985 268.84 187.93C274.654 185.857 277.643 179.476 275.588 173.712C273.581 167.931 267.182 164.897 261.368 166.97Z" fill="#FDE92B" fill-opacity="0.5"/>
<path d="M331.561 141.946C325.748 144.018 322.759 150.399 324.814 156.163C326.886 161.975 333.268 164.961 339.034 162.905C344.848 160.833 347.836 154.452 345.781 148.688C343.726 142.924 337.375 139.873 331.561 141.946Z" fill="#FDE92B" fill-opacity="0.5"/>
<path d="M409.244 137.929C415.034 135.865 418.055 129.499 415.992 123.711C413.929 117.923 407.562 114.905 401.772 116.969C395.982 119.033 392.961 125.398 395.024 131.186C397.088 136.974 403.454 139.993 409.244 137.929Z" fill="#FDE92B" fill-opacity="0.5"/>
<path d="M38.1311 206.394C43.9212 204.33 46.9422 197.964 44.8788 192.176C42.8154 186.388 36.4489 183.37 30.6588 185.434C24.8688 187.498 21.8478 193.863 23.9112 199.651C25.9746 205.439 32.3411 208.458 38.1311 206.394Z" fill="#FDE92B" fill-opacity="0.5"/>
<path d="M108.325 181.37C114.115 179.305 117.136 172.94 115.073 167.152C113.009 161.364 106.643 158.345 100.853 160.41C95.0626 162.474 92.0416 168.839 94.1051 174.627C96.1685 180.415 102.535 183.434 108.325 181.37Z" fill="#FDE92B" fill-opacity="0.5"/>
<path d="M178.519 156.345C184.309 154.281 187.33 147.916 185.266 142.128C183.203 136.34 176.836 133.321 171.046 135.385C165.256 137.449 162.235 143.815 164.299 149.603C166.362 155.391 172.729 158.409 178.519 156.345Z" fill="#FDE92B" fill-opacity="0.5"/>
<path d="M241.193 110.378C235.379 112.451 232.39 118.831 234.445 124.595C236.5 130.359 242.899 133.394 248.665 131.338C254.479 129.265 257.467 122.884 255.413 117.12C253.358 111.356 247.006 108.305 241.193 110.378Z" fill="#FDE92B" fill-opacity="0.5"/>
<path d="M311.386 85.3536C305.573 87.4262 302.584 93.8072 304.639 99.5712C306.694 105.335 313.093 108.369 318.859 106.314C324.672 104.241 327.661 97.8601 325.606 92.0962C323.551 86.3322 317.2 83.281 311.386 85.3536Z" fill="#FDE92B" fill-opacity="0.5"/>
<path d="M389.052 81.2894C394.842 79.2252 397.863 72.8598 395.8 67.0719C393.736 61.284 387.37 58.2652 381.58 60.3294C375.79 62.3936 372.769 68.759 374.832 74.5469C376.896 80.3348 383.262 83.3536 389.052 81.2894Z" fill="#FDE92B" fill-opacity="0.5"/>
<path d="M10.4838 128.842C4.67004 130.915 1.68126 137.295 3.73614 143.059C5.808 148.871 12.19 151.858 17.9561 149.802C23.7698 147.729 26.7586 141.348 24.7037 135.584C22.6965 129.803 16.2975 126.769 10.4838 128.842Z" fill="#FDE92B" fill-opacity="0.5"/>
<path d="M80.6774 103.818C74.8636 105.89 71.8749 112.271 73.9297 118.035C76.0016 123.847 82.3836 126.833 88.1497 124.778C93.9157 122.722 96.9522 116.324 94.8973 110.56C92.8424 104.796 86.4911 101.745 80.6774 103.818Z" fill="#FDE92B" fill-opacity="0.5"/>
<path d="M150.871 78.7934C145.057 80.866 142.069 87.2469 144.124 93.0109C146.195 98.8225 152.577 101.809 158.344 99.7533C164.157 97.6807 167.146 91.2998 165.091 85.5359C163.036 79.7719 156.637 76.7378 150.871 78.7934Z" fill="#FDE92B" fill-opacity="0.5"/>
<path d="M221.017 53.7861C215.204 55.8587 212.215 62.2396 214.27 68.0036C216.342 73.8152 222.724 76.8016 228.49 74.746C234.303 72.6734 237.292 66.2925 235.237 60.5285C233.23 54.7476 226.831 51.7135 221.017 53.7861Z" fill="#FDE92B" fill-opacity="0.5"/>
<path d="M291.211 28.7618C285.397 30.8344 282.409 37.2153 284.463 42.9793C286.535 48.7909 292.917 51.7773 298.683 49.7217C304.497 47.6491 307.486 41.2683 305.431 35.5043C303.376 29.7403 297.025 26.6892 291.211 28.7618Z" fill="#FDE92B" fill-opacity="0.5"/>
<path d="M361.405 3.73756C355.591 5.81018 352.602 12.191 354.657 17.955C356.729 23.7666 363.111 26.7531 368.877 24.6975C374.643 22.6419 377.679 16.244 375.625 10.48C373.57 4.71601 367.218 1.66495 361.405 3.73756Z" fill="#FDE92B" fill-opacity="0.5"/>
</svg>
