<svg width="420" height="496" viewBox="0 0 420 496" fill="none" xmlns="http://www.w3.org/2000/svg">
<path d="M65.2725 467.967C72.325 466.024 76.4676 458.734 74.5253 451.684C72.583 444.634 65.2913 440.494 58.2388 442.437C51.1863 444.38 47.0437 451.67 48.986 458.72C50.9283 465.77 58.22 469.91 65.2725 467.967Z" fill="#FDE92B" fill-opacity="0.5"/>
<path d="M150.771 444.412C157.824 442.469 161.966 435.179 160.024 428.129C158.082 421.079 150.79 416.939 143.738 418.882C136.685 420.825 132.542 428.115 134.485 435.165C136.427 442.215 143.719 446.355 150.771 444.412Z" fill="#FDE92B" fill-opacity="0.5"/>
<path d="M229.178 395.342C222.097 397.293 217.991 404.605 219.926 411.626C221.876 418.704 229.189 422.808 236.212 420.873C243.293 418.922 247.399 411.61 245.465 404.589C243.573 397.495 236.26 393.392 229.178 395.342Z" fill="#FDE92B" fill-opacity="0.5"/>
<path d="M314.677 371.787C307.596 373.738 303.49 381.05 305.424 388.07C307.375 395.149 314.688 399.252 321.711 397.317C328.792 395.366 332.898 388.055 330.964 381.034C329.013 373.955 321.759 369.836 314.677 371.787Z" fill="#FDE92B" fill-opacity="0.5"/>
<path d="M407.209 373.762C414.262 371.819 418.405 364.529 416.462 357.479C414.52 350.429 407.228 346.289 400.176 348.232C393.123 350.175 388.981 357.465 390.923 364.515C392.865 371.565 400.157 375.705 407.209 373.762Z" fill="#FDE92B" fill-opacity="0.5"/>
<path d="M46.2816 399.036C53.3341 397.093 57.4767 389.803 55.5344 382.753C53.5921 375.703 46.3004 371.563 39.2479 373.506C32.1954 375.449 28.0528 382.739 29.9951 389.789C31.9374 396.839 39.2291 400.979 46.2816 399.036Z" fill="#FDE92B" fill-opacity="0.5"/>
<path d="M131.78 375.481C138.833 373.538 142.975 366.247 141.033 359.198C139.091 352.148 131.799 348.008 124.747 349.951C117.694 351.894 113.552 359.184 115.494 366.234C117.436 373.284 124.728 377.424 131.78 375.481Z" fill="#FDE92B" fill-opacity="0.5"/>
<path d="M210.188 326.411C203.106 328.362 199 335.674 200.935 342.694C202.885 349.773 210.198 353.876 217.221 351.941C224.303 349.99 228.408 342.679 226.474 335.658C224.582 328.563 217.269 324.46 210.188 326.411Z" fill="#FDE92B" fill-opacity="0.5"/>
<path d="M295.686 302.856C288.605 304.807 284.499 312.118 286.433 319.139C288.384 326.218 295.697 330.321 302.72 328.386C309.801 326.435 313.907 319.124 311.973 312.103C310.022 305.024 302.768 300.905 295.686 302.856Z" fill="#FDE92B" fill-opacity="0.5"/>
<path d="M388.219 304.831C395.271 302.888 399.414 295.597 397.471 288.547C395.529 281.497 388.237 277.358 381.185 279.301C374.132 281.244 369.99 288.534 371.932 295.584C373.874 302.634 381.166 306.774 388.219 304.831Z" fill="#FDE92B" fill-opacity="0.5"/>
<path d="M20.241 304.517C13.1597 306.468 9.05395 313.779 10.9882 320.8C12.9385 327.879 20.2514 331.982 27.2747 330.047C34.298 328.112 38.4618 320.785 36.5275 313.764C34.5933 306.743 27.3224 302.566 20.241 304.517Z" fill="#FDE92B" fill-opacity="0.5"/>
<path d="M105.74 280.962C98.6584 282.913 94.5527 290.224 96.487 297.245C98.4372 304.324 105.75 308.427 112.773 306.492C119.855 304.541 123.961 297.229 122.026 290.209C120.092 283.188 112.763 279.027 105.74 280.962Z" fill="#FDE92B" fill-opacity="0.5"/>
<path d="M191.181 257.422C184.099 259.373 179.994 266.685 181.928 273.705C183.878 280.784 191.191 284.887 198.214 282.952C205.296 281.001 209.401 273.69 207.467 266.669C205.591 259.632 198.262 255.471 191.181 257.422Z" fill="#FDE92B" fill-opacity="0.5"/>
<path d="M276.679 233.867C269.598 235.818 265.492 243.129 267.427 250.15C269.377 257.229 276.69 261.332 283.713 259.397C290.794 257.446 294.9 250.135 292.966 243.114C291.032 236.093 283.761 231.916 276.679 233.867Z" fill="#FDE92B" fill-opacity="0.5"/>
<path d="M362.178 210.312C355.097 212.262 350.991 219.574 352.925 226.595C354.876 233.673 362.188 237.777 369.212 235.842C376.235 233.907 380.399 226.579 378.465 219.558C376.53 212.538 369.259 208.361 362.178 210.312Z" fill="#FDE92B" fill-opacity="0.5"/>
<path d="M8.29981 261.174C15.3523 259.231 19.4949 251.94 17.5526 244.891C15.6103 237.841 8.31863 233.701 1.26613 235.644C-5.78637 237.587 -9.92897 244.877 -7.98668 251.927C-6.04439 258.977 1.24731 263.117 8.29981 261.174Z" fill="#FDE92B" fill-opacity="0.5"/>
<path d="M93.7985 237.618C100.851 235.675 104.994 228.385 103.051 221.335C101.109 214.285 93.8174 210.145 86.7649 212.088C79.7124 214.031 75.5698 221.321 77.5121 228.371C79.4543 235.421 86.746 239.561 93.7985 237.618Z" fill="#FDE92B" fill-opacity="0.5"/>
<path d="M172.19 188.491C165.108 190.442 161.003 197.753 162.937 204.774C164.887 211.853 172.2 215.956 179.223 214.021C186.305 212.07 190.411 204.759 188.476 197.738C186.6 190.701 179.271 186.54 172.19 188.491Z" fill="#FDE92B" fill-opacity="0.5"/>
<path d="M257.689 164.936C250.607 166.887 246.501 174.198 248.436 181.219C250.386 188.298 257.699 192.401 264.722 190.466C271.804 188.515 275.909 181.203 273.975 174.183C272.041 167.162 264.77 162.985 257.689 164.936Z" fill="#FDE92B" fill-opacity="0.5"/>
<path d="M350.237 166.968C357.289 165.025 361.432 157.735 359.49 150.685C357.547 143.635 350.256 139.495 343.203 141.438C336.151 143.381 332.008 150.671 333.95 157.721C335.893 164.771 343.184 168.911 350.237 166.968Z" fill="#FDE92B" fill-opacity="0.5"/>
<path d="M-10.7071 192.185C-3.65458 190.242 0.488048 182.951 -1.45424 175.902C-3.39654 168.852 -10.6883 164.712 -17.7408 166.655C-24.7932 168.598 -28.9359 175.888 -26.9936 182.938C-25.0513 189.988 -17.7596 194.128 -10.7071 192.185Z" fill="#FDE92B" fill-opacity="0.5"/>
<path d="M74.7917 168.629C81.8441 166.686 85.9869 159.396 84.0446 152.346C82.1023 145.296 74.8105 141.156 67.758 143.099C60.7055 145.042 56.5629 152.332 58.5052 159.382C60.4475 166.432 67.7392 170.572 74.7917 168.629Z" fill="#FDE92B" fill-opacity="0.5"/>
<path d="M153.199 119.56C146.117 121.511 142.012 128.822 143.946 135.843C145.88 142.864 153.209 147.025 160.233 145.09C167.314 143.139 171.42 135.828 169.485 128.807C167.551 121.786 160.28 117.609 153.199 119.56Z" fill="#FDE92B" fill-opacity="0.5"/>
<path d="M238.698 96.0043C231.616 97.9553 227.51 105.267 229.445 112.288C231.379 119.308 238.708 123.469 245.731 121.534C252.813 119.583 256.918 112.272 254.984 105.251C253.05 98.2306 245.779 94.0534 238.698 96.0043Z" fill="#FDE92B" fill-opacity="0.5"/>
<path d="M331.23 97.9793C338.282 96.0363 342.425 88.7461 340.483 81.6962C338.54 74.6462 331.249 70.5062 324.196 72.4492C317.144 74.3922 313.001 81.6825 314.943 88.7324C316.886 95.7823 324.177 99.9223 331.23 97.9793Z" fill="#FDE92B" fill-opacity="0.5"/>
<path d="M48.7671 74.1679C41.6858 76.1189 37.58 83.4303 39.5143 90.4511C41.4645 97.5298 48.7775 101.633 55.8008 99.698C62.8821 97.747 66.988 90.4356 65.0537 83.4148C63.1194 76.394 55.7904 72.233 48.7671 74.1679Z" fill="#FDE92B" fill-opacity="0.5"/>
<path d="M134.208 50.6286C127.127 52.5796 123.021 59.891 124.955 66.9117C126.905 73.9905 134.218 78.0936 141.242 76.1587C148.323 74.2077 152.429 66.8963 150.495 59.8755C148.618 52.8387 141.289 48.6777 134.208 50.6286Z" fill="#FDE92B" fill-opacity="0.5"/>
<path d="M219.707 27.0732C212.625 29.0241 208.52 36.3356 210.454 43.3563C212.404 50.4351 219.717 54.5382 226.74 52.6032C233.822 50.6523 237.927 43.3409 235.993 36.3201C234.059 29.2993 226.788 25.1222 219.707 27.0732Z" fill="#FDE92B" fill-opacity="0.5"/>
<path d="M305.205 3.51781C298.124 5.46876 294.018 12.7801 295.953 19.8009C297.903 26.8797 305.216 30.9828 312.239 29.0478C319.262 27.1129 323.426 19.7855 321.492 12.7647C319.558 5.74393 312.287 1.56686 305.205 3.51781Z" fill="#FDE92B" fill-opacity="0.5"/>
</svg>
