<svg width="1440" height="1786" viewBox="0 0 1440 1786" fill="none" xmlns="http://www.w3.org/2000/svg">
<path d="M1640.51 858.094C1553.84 883.355 1533.45 813.551 1446.78 838.812C1360.11 864.074 1380.45 933.964 1293.78 959.225C1207.11 984.487 1186.72 914.683 1100.05 939.944C1013.38 965.206 1033.72 1035.1 947.052 1060.36C860.38 1085.62 839.992 1015.81 753.32 1041.08C666.648 1066.34 686.995 1136.23 600.323 1161.49C513.651 1186.75 493.263 1116.95 406.591 1142.21C319.878 1167.56 340.266 1237.36 253.553 1262.71C166.84 1288.05 146.407 1218.12 59.6935 1243.47" stroke="#FDE92B" stroke-width="3" stroke-miterlimit="10"/>
<path d="M1594.42 700.269C1507.75 725.53 1487.36 655.726 1400.69 680.988C1314.02 706.249 1334.36 776.139 1247.69 801.401C1161.02 826.662 1140.63 756.858 1053.96 782.119C967.287 807.381 987.633 877.271 900.961 902.532C814.29 927.793 793.902 857.99 707.23 883.251C620.558 908.512 640.905 978.403 554.233 1003.66C467.561 1028.93 447.173 959.121 360.501 984.383C273.788 1009.73 294.176 1079.53 207.463 1104.88C120.75 1130.23 100.316 1060.3 13.6032 1085.65" stroke="#FDE92B" stroke-width="3" stroke-miterlimit="10"/>
<path d="M1548.29 542.531C1461.62 567.792 1441.23 497.988 1354.56 523.249C1267.88 548.511 1288.23 618.401 1201.56 643.662C1114.89 668.924 1094.5 599.12 1007.83 624.381C921.154 649.642 941.501 719.533 854.829 744.794C768.157 770.055 747.769 700.251 661.097 725.513C574.425 750.774 594.772 820.664 508.1 845.926C421.428 871.187 401.04 801.383 314.369 826.645C227.655 851.992 248.043 921.796 161.33 947.144C74.6172 972.492 54.1841 902.56 -32.529 927.908" stroke="#FDE92B" stroke-width="3" stroke-miterlimit="10"/>
</svg>
