<svg width="389" height="299" viewBox="0 0 389 299" fill="none" xmlns="http://www.w3.org/2000/svg">
<path d="M250.717 293.538C243.546 295.75 239.58 303.345 241.774 310.455C243.986 317.623 251.582 321.586 258.694 319.391C265.865 317.178 269.831 309.584 267.637 302.474C265.443 295.364 257.829 291.343 250.717 293.538Z" fill="white"/>
<path d="M337.24 266.839C330.069 269.052 326.104 276.646 328.297 283.756C330.509 290.924 338.105 294.887 345.218 292.692C352.389 290.479 356.354 282.885 354.161 275.775C352.025 268.647 344.411 264.626 337.24 266.839Z" fill="white"/>
<path d="M64.0069 303.079C71.1488 300.875 75.1525 293.301 72.9495 286.162C70.7465 279.023 63.171 275.022 56.0292 277.226C48.8873 279.429 44.8836 287.003 47.0865 294.143C49.2895 301.282 56.865 305.283 64.0069 303.079Z" fill="white"/>
<path d="M150.589 276.362C157.731 274.158 161.735 266.584 159.532 259.445C157.329 252.306 149.753 248.305 142.611 250.509C135.469 252.712 131.466 260.286 133.669 267.426C135.872 274.565 143.447 278.566 150.589 276.362Z" fill="white"/>
<path d="M237.171 249.645C244.313 247.441 248.317 239.867 246.114 232.728C243.911 225.589 236.335 221.588 229.193 223.792C222.051 225.995 218.048 233.569 220.251 240.709C222.454 247.848 230.029 251.849 237.171 249.645Z" fill="white"/>
<path d="M315.699 197.034C308.528 199.247 304.563 206.841 306.756 213.951C308.968 221.12 316.564 225.082 323.677 222.888C330.848 220.675 334.813 213.08 332.62 205.97C330.484 198.842 322.87 194.821 315.699 197.034Z" fill="white"/>
<path d="M42.4483 233.216C49.5902 231.012 53.5939 223.438 51.3909 216.298C49.188 209.159 41.6124 205.158 34.4706 207.362C27.3287 209.566 23.325 217.14 25.528 224.279C27.7309 231.418 35.3064 235.419 42.4483 233.216Z" fill="white"/>
<path d="M129.03 206.499C136.172 204.295 140.176 196.721 137.973 189.582C135.77 182.442 128.194 178.441 121.053 180.645C113.911 182.849 109.907 190.423 112.11 197.562C114.313 204.701 121.888 208.702 129.03 206.499Z" fill="white"/>
<path d="M215.614 179.782C222.756 177.578 226.76 170.004 224.557 162.865C222.354 155.725 214.778 151.724 207.637 153.928C200.495 156.132 196.491 163.706 198.694 170.845C200.897 177.984 208.472 181.985 215.614 179.782Z" fill="white"/>
<path d="M294.16 127.229C286.989 129.442 283.024 137.037 285.217 144.146C287.411 151.256 295.025 155.277 302.138 153.083C309.309 150.87 313.274 143.275 311.08 136.166C308.887 129.056 301.331 125.016 294.16 127.229Z" fill="white"/>
<path d="M380.742 100.512C373.571 102.725 369.606 110.32 371.799 117.429C373.993 124.539 381.608 128.56 388.72 126.366C395.891 124.153 399.856 116.558 397.662 109.449C395.469 102.339 387.913 98.2993 380.742 100.512Z" fill="white"/>
<path d="M12.9315 137.557C5.76038 139.77 1.79499 147.365 3.98886 154.474C6.20087 161.643 13.7969 165.606 20.9092 163.411C28.0803 161.198 32.0457 153.604 29.8519 146.494C27.7168 139.366 20.1026 135.344 12.9315 137.557Z" fill="white"/>
<path d="M99.5135 110.84C92.3424 113.053 88.377 120.648 90.5709 127.757C92.7829 134.926 100.379 138.889 107.491 136.694C114.604 134.499 118.628 126.886 116.434 119.777C114.24 112.667 106.685 108.627 99.5135 110.84Z" fill="white"/>
<path d="M186.096 84.1233C178.924 86.3361 174.959 93.9307 177.153 101.04C179.365 108.209 186.961 112.172 194.073 109.977C201.244 107.764 205.21 100.17 203.016 93.0598C200.822 85.95 193.208 81.9287 186.096 84.1233Z" fill="white"/>
<path d="M272.619 57.4244C265.448 59.6372 261.482 67.2317 263.676 74.3415C265.888 81.51 273.484 85.4726 280.597 83.2779C287.768 81.0651 291.733 73.4706 289.539 66.3608C287.404 59.2329 279.79 55.2115 272.619 57.4244Z" fill="white"/>
<path d="M359.203 30.7074C352.032 32.9202 348.066 40.5148 350.26 47.6245C352.472 54.7931 360.068 58.7557 367.181 56.561C374.352 54.3482 378.317 46.7537 376.123 39.6439C373.929 32.5342 366.374 28.4946 359.203 30.7074Z" fill="white"/>
</svg>
