<svg width="22" height="17" viewBox="0 0 22 17" fill="none" xmlns="http://www.w3.org/2000/svg">
<path d="M0.0227275 16.5647V11.6556C0.0227275 10.2617 0.295455 8.83742 0.840909 7.38288C1.38636 5.92833 2.10606 4.55712 3 3.26924C3.89394 1.98136 4.86364 0.905604 5.90909 0.0419693L10.1818 2.5647C9.33333 3.89803 8.63636 5.29197 8.09091 6.74651C7.56061 8.20106 7.29545 9.82227 7.29545 11.6101V16.5647H0.0227275ZM11.5 16.5647V11.6556C11.5 10.2617 11.7727 8.83742 12.3182 7.38288C12.8636 5.92833 13.5833 4.55712 14.4773 3.26924C15.3712 1.98136 16.3409 0.905604 17.3864 0.0419693L21.6591 2.5647C20.8106 3.89803 20.1136 5.29197 19.5682 6.74651C19.0379 8.20106 18.7727 9.82227 18.7727 11.6101V16.5647H11.5Z" fill="black"/>
</svg>
