<svg width="122" height="25" viewBox="0 0 122 25" fill="none" xmlns="http://www.w3.org/2000/svg">
<path d="M12.3123 18.5877L8.16233 21.0877C7.97899 21.2044 7.78733 21.2544 7.58733 21.2377C7.38733 21.221 7.21233 21.1544 7.06233 21.0377C6.91233 20.921 6.79566 20.7754 6.71233 20.6007C6.62899 20.4254 6.61233 20.2294 6.66233 20.0127L7.76233 15.2877L4.08733 12.1127C3.92066 11.9627 3.81666 11.7917 3.77533 11.5997C3.73333 11.4084 3.74566 11.221 3.81233 11.0377C3.87899 10.8544 3.97899 10.7044 4.11233 10.5877C4.24566 10.471 4.42899 10.396 4.66233 10.3627L9.51233 9.9377L11.3873 5.4877C11.4707 5.2877 11.6 5.1377 11.7753 5.0377C11.95 4.9377 12.129 4.8877 12.3123 4.8877C12.4957 4.8877 12.675 4.9377 12.8503 5.0377C13.025 5.1377 13.154 5.2877 13.2373 5.4877L15.1123 9.9377L19.9623 10.3627C20.1957 10.396 20.379 10.471 20.5123 10.5877C20.6457 10.7044 20.7457 10.8544 20.8123 11.0377C20.879 11.221 20.8917 11.4084 20.8503 11.5997C20.8083 11.7917 20.704 11.9627 20.5373 12.1127L16.8623 15.2877L17.9623 20.0127C18.0123 20.2294 17.9957 20.4254 17.9123 20.6007C17.829 20.7754 17.7123 20.921 17.5623 21.0377C17.4123 21.1544 17.2373 21.221 17.0373 21.2377C16.8373 21.2544 16.6457 21.2044 16.4623 21.0877L12.3123 18.5877Z" fill="#FDE92B"/>
<path d="M36.6248 18.5877L32.4748 21.0877C32.2915 21.2044 32.0998 21.2544 31.8998 21.2377C31.6998 21.221 31.5248 21.1544 31.3748 21.0377C31.2248 20.921 31.1082 20.7754 31.0248 20.6007C30.9415 20.4254 30.9248 20.2294 30.9748 20.0127L32.0748 15.2877L28.3998 12.1127C28.2332 11.9627 28.1292 11.7917 28.0878 11.5997C28.0458 11.4084 28.0582 11.221 28.1248 11.0377C28.1915 10.8544 28.2915 10.7044 28.4248 10.5877C28.5582 10.471 28.7415 10.396 28.9748 10.3627L33.8248 9.9377L35.6998 5.4877C35.7832 5.2877 35.9125 5.1377 36.0878 5.0377C36.2625 4.9377 36.4415 4.8877 36.6248 4.8877C36.8082 4.8877 36.9875 4.9377 37.1628 5.0377C37.3375 5.1377 37.4665 5.2877 37.5498 5.4877L39.4248 9.9377L44.2748 10.3627C44.5082 10.396 44.6915 10.471 44.8248 10.5877C44.9582 10.7044 45.0582 10.8544 45.1248 11.0377C45.1915 11.221 45.2042 11.4084 45.1628 11.5997C45.1208 11.7917 45.0165 11.9627 44.8498 12.1127L41.1748 15.2877L42.2748 20.0127C42.3248 20.2294 42.3082 20.4254 42.2248 20.6007C42.1415 20.7754 42.0248 20.921 41.8748 21.0377C41.7248 21.1544 41.5498 21.221 41.3498 21.2377C41.1498 21.2544 40.9582 21.2044 40.7748 21.0877L36.6248 18.5877Z" fill="#FDE92B"/>
<path d="M60.9373 18.5877L56.7873 21.0877C56.604 21.2044 56.4123 21.2544 56.2123 21.2377C56.0123 21.221 55.8373 21.1544 55.6873 21.0377C55.5373 20.921 55.4207 20.7754 55.3373 20.6007C55.254 20.4254 55.2373 20.2294 55.2873 20.0127L56.3873 15.2877L52.7123 12.1127C52.5457 11.9627 52.4417 11.7917 52.4003 11.5997C52.3583 11.4084 52.3707 11.221 52.4373 11.0377C52.504 10.8544 52.604 10.7044 52.7373 10.5877C52.8707 10.471 53.054 10.396 53.2873 10.3627L58.1373 9.9377L60.0123 5.4877C60.0957 5.2877 60.225 5.1377 60.4003 5.0377C60.575 4.9377 60.754 4.8877 60.9373 4.8877C61.1207 4.8877 61.3 4.9377 61.4753 5.0377C61.65 5.1377 61.779 5.2877 61.8623 5.4877L63.7373 9.9377L68.5873 10.3627C68.8207 10.396 69.004 10.471 69.1373 10.5877C69.2707 10.7044 69.3707 10.8544 69.4373 11.0377C69.504 11.221 69.5167 11.4084 69.4753 11.5997C69.4333 11.7917 69.329 11.9627 69.1623 12.1127L65.4873 15.2877L66.5873 20.0127C66.6373 20.2294 66.6207 20.4254 66.5373 20.6007C66.454 20.7754 66.3373 20.921 66.1873 21.0377C66.0373 21.1544 65.8623 21.221 65.6623 21.2377C65.4623 21.2544 65.2707 21.2044 65.0873 21.0877L60.9373 18.5877Z" fill="#FDE92B"/>
<path d="M85.2498 18.5877L81.0998 21.0877C80.9165 21.2044 80.7248 21.2544 80.5248 21.2377C80.3248 21.221 80.1498 21.1544 79.9998 21.0377C79.8498 20.921 79.7332 20.7754 79.6498 20.6007C79.5665 20.4254 79.5498 20.2294 79.5998 20.0127L80.6998 15.2877L77.0248 12.1127C76.8582 11.9627 76.7542 11.7917 76.7128 11.5997C76.6708 11.4084 76.6832 11.221 76.7498 11.0377C76.8165 10.8544 76.9165 10.7044 77.0498 10.5877C77.1832 10.471 77.3665 10.396 77.5998 10.3627L82.4498 9.9377L84.3248 5.4877C84.4082 5.2877 84.5375 5.1377 84.7128 5.0377C84.8875 4.9377 85.0665 4.8877 85.2498 4.8877C85.4332 4.8877 85.6125 4.9377 85.7878 5.0377C85.9625 5.1377 86.0915 5.2877 86.1748 5.4877L88.0498 9.9377L92.8998 10.3627C93.1332 10.396 93.3165 10.471 93.4498 10.5877C93.5832 10.7044 93.6832 10.8544 93.7498 11.0377C93.8165 11.221 93.8292 11.4084 93.7878 11.5997C93.7458 11.7917 93.6415 11.9627 93.4748 12.1127L89.7998 15.2877L90.8998 20.0127C90.9498 20.2294 90.9332 20.4254 90.8498 20.6007C90.7665 20.7754 90.6498 20.921 90.4998 21.0377C90.3498 21.1544 90.1748 21.221 89.9748 21.2377C89.7748 21.2544 89.5832 21.2044 89.3998 21.0877L85.2498 18.5877Z" fill="#FDE92B"/>
<path d="M108.874 18.5877L104.724 21.0877C104.541 21.2044 104.349 21.2544 104.149 21.2377C103.949 21.221 103.774 21.1544 103.624 21.0377C103.474 20.921 103.357 20.7754 103.274 20.6007C103.191 20.4254 103.174 20.2294 103.224 20.0127L104.324 15.2877L100.649 12.1127C100.482 11.9627 100.378 11.7917 100.337 11.5997C100.295 11.4084 100.307 11.221 100.374 11.0377C100.441 10.8544 100.541 10.7044 100.674 10.5877C100.807 10.471 100.991 10.396 101.224 10.3627L106.074 9.9377L107.949 5.4877C108.032 5.2877 108.162 5.1377 108.337 5.0377C108.512 4.9377 108.691 4.8877 108.874 4.8877C109.057 4.8877 109.237 4.9377 109.412 5.0377C109.587 5.1377 109.716 5.2877 109.799 5.4877L111.674 9.9377L116.524 10.3627C116.757 10.396 116.941 10.471 117.074 10.5877C117.207 10.7044 117.307 10.8544 117.374 11.0377C117.441 11.221 117.453 11.4084 117.412 11.5997C117.37 11.7917 117.266 11.9627 117.099 12.1127L113.424 15.2877L114.524 20.0127C114.574 20.2294 114.557 20.4254 114.474 20.6007C114.391 20.7754 114.274 20.921 114.124 21.0377C113.974 21.1544 113.799 21.221 113.599 21.2377C113.399 21.2544 113.207 21.2044 113.024 21.0877L108.874 18.5877Z" fill="#FDE92B"/>
</svg>
