<svg width="23" height="17" viewBox="0 0 23 17" fill="none" xmlns="http://www.w3.org/2000/svg">
<path d="M0.710227 16.5647V11.6556C0.710227 10.2617 0.982955 8.83742 1.52841 7.38288C2.07386 5.92833 2.79356 4.55712 3.6875 3.26924C4.58144 1.98136 5.55114 0.905604 6.59659 0.0419693L10.8693 2.5647C10.0208 3.89803 9.32386 5.29197 8.77841 6.74651C8.24811 8.20106 7.98295 9.82227 7.98295 11.6101V16.5647H0.710227ZM12.1875 16.5647V11.6556C12.1875 10.2617 12.4602 8.83742 13.0057 7.38288C13.5511 5.92833 14.2708 4.55712 15.1648 3.26924C16.0587 1.98136 17.0284 0.905604 18.0739 0.0419693L22.3466 2.5647C21.4981 3.89803 20.8011 5.29197 20.2557 6.74651C19.7254 8.20106 19.4602 9.82227 19.4602 11.6101V16.5647H12.1875Z" fill="#FDE92B"/>
</svg>
