<svg width="86" height="84" viewBox="0 0 86 84" fill="none" xmlns="http://www.w3.org/2000/svg">
<path d="M71.7227 0H14.2773C6.39218 0 0 6.39337 0 14.28V69.5856C0 77.4722 6.39218 83.8656 14.2773 83.8656H71.7227C79.6078 83.8656 86 77.4722 86 69.5856V14.28C86 6.39337 79.6078 0 71.7227 0Z" fill="#001E36"/>
<path d="M19.3648 58.8117V21.9398C19.3648 21.671 19.4804 21.5359 19.7112 21.5359L20.0763 21.5349L20.7005 21.5282L21.5679 21.511L24.4737 21.4495L27.5896 21.3917C28.6854 21.3729 29.7718 21.3629 30.8488 21.3629C33.7715 21.3629 36.2329 21.7284 38.2334 22.4592C40.0379 23.0697 41.6837 24.075 43.0508 25.4019C44.2097 26.5521 45.1053 27.9402 45.6758 29.4702C46.2154 30.9591 46.4889 32.5314 46.4837 34.1151C46.4837 37.1932 45.7718 39.732 44.3488 41.7318C42.9569 43.6829 41.0155 45.175 38.7723 46.0179L38.5798 46.0884C36.2373 46.9624 33.6432 47.2782 30.7981 47.298L30.356 47.2994L29.6999 47.296L29.369 47.2913L29.0002 47.2826L28.7778 47.2738L28.6427 47.2668L28.3105 47.2547L27.9043 47.2463L27.2929 47.2419L27.1569 47.2416V58.7539C27.167 58.8245 27.1605 58.8965 27.138 58.9641C27.1155 59.0317 27.0775 59.0932 27.0271 59.1436C26.9767 59.194 26.9153 59.232 26.8476 59.2545C26.78 59.2771 26.7081 59.2835 26.6375 59.2734H19.7689C19.4992 59.2734 19.3648 59.1202 19.3648 58.8117ZM27.1572 28.4602V40.4863C27.6176 40.5235 28.0793 40.5427 28.5413 40.5441H30.4454C31.7581 40.5397 33.0633 40.3442 34.3197 39.9638L34.5703 39.8855C35.7134 39.5459 36.7348 38.8849 37.5128 37.9811C38.2358 37.1283 38.6103 35.9533 38.6362 34.4558L38.6379 34.2881C38.6681 33.1719 38.3779 32.0705 37.8011 31.1146C37.1948 30.1901 36.3186 29.4748 35.2916 29.066C33.9505 28.5447 32.518 28.2994 31.08 28.3449L30.3483 28.3469L29.8867 28.351L29.4463 28.3567L28.8248 28.3688L28.3713 28.3816L28.1358 28.3903L27.821 28.4051L27.5529 28.4215L27.4001 28.4336L27.2681 28.4464L27.21 28.4531L27.1572 28.4602ZM68.79 38.2996C67.7835 37.7823 66.7161 37.3938 65.6127 37.1431L65.3573 37.088C64.1434 36.8094 62.9042 36.6559 61.659 36.63L61.3479 36.6263C60.618 36.6065 59.889 36.6941 59.1845 36.8861C58.7359 36.9858 58.3372 37.2413 58.0591 37.6071C57.8711 37.8998 57.7711 38.2403 57.7709 38.5882C57.7814 38.9256 57.903 39.2501 58.1169 39.5112C58.423 39.8694 58.7912 40.1695 59.2036 40.3973L59.3286 40.4634C60.1512 40.9064 60.9987 41.3013 61.867 41.6462C63.8031 42.2945 65.6532 43.1761 67.3763 44.2717C68.5504 45.0127 69.5219 46.034 70.2036 47.2436C70.7767 48.3888 71.0637 49.6558 71.0401 50.9362C71.0746 52.6272 70.5914 54.2884 69.6553 55.697C68.6532 57.1267 67.2614 58.2382 65.6456 58.8991C63.9535 59.643 61.8753 60.027 59.4116 60.0522L59.1556 60.0536C57.6282 60.0691 56.103 59.9354 54.6016 59.6544L54.2805 59.5919C53.0164 59.3601 51.7858 58.9724 50.6171 58.4378C50.4996 58.3771 50.4004 58.2864 50.3294 58.1748C50.2585 58.0632 50.2184 57.9348 50.2133 57.8027V51.5135C50.2064 51.4524 50.2161 51.3906 50.2416 51.3347C50.267 51.2788 50.3072 51.2308 50.3577 51.196C50.4073 51.168 50.4641 51.1557 50.5208 51.1609C50.5775 51.1661 50.6312 51.1884 50.6749 51.2249C52.0551 52.0389 53.5538 52.6327 55.117 52.9848C56.4948 53.3303 57.9082 53.5143 59.3286 53.5332C60.6744 53.5332 61.6647 53.3598 62.2996 53.0137C62.5863 52.8825 62.8288 52.6709 62.9978 52.4046C63.1668 52.1384 63.255 51.8288 63.2517 51.5135C63.2517 51.0142 62.9631 50.533 62.3863 50.071C62.1444 49.8775 61.7974 49.6668 61.3459 49.4394L61.1299 49.3332L60.8994 49.2246L60.7785 49.1695L60.5252 49.0573C60.4813 49.0381 60.4373 49.0191 60.3932 49.0002L60.1177 48.8846L59.9743 48.8258L59.6766 48.7065L59.5221 48.6461L59.202 48.5227L58.867 48.3974C57.0555 47.7668 55.3379 46.8933 53.7611 45.8008C52.6335 45.0164 51.7049 43.9789 51.0498 42.7714C50.4824 41.6344 50.1956 40.378 50.2133 39.1073C50.2101 37.5806 50.6293 36.0828 51.4247 34.7797C52.3317 33.3449 53.6338 32.2025 55.1747 31.4909C56.8669 30.6452 58.9819 30.2218 61.5206 30.2212C63.0075 30.2092 64.493 30.3154 65.963 30.5387C67.0275 30.6737 68.0683 30.9553 69.0557 31.3753C69.2146 31.421 69.3426 31.5383 69.4017 31.6928C69.441 31.8336 69.4601 31.9791 69.4595 32.1256V37.9535C69.4679 38.0913 69.4017 38.2233 69.2865 38.2996C69.2093 38.338 69.1244 38.3579 69.0382 38.3579C68.9521 38.3579 68.8671 38.338 68.79 38.2996Z" fill="#31A8FF"/>
</svg>
