<svg width="86" height="84" viewBox="0 0 86 84" fill="none" xmlns="http://www.w3.org/2000/svg">
<path d="M71.7227 0H14.2773C6.39218 0 0 6.39337 0 14.28V69.5856C0 77.4722 6.39218 83.8656 14.2773 83.8656H71.7227C79.6078 83.8656 86 77.4722 86 69.5856V14.28C86 6.39337 79.6078 0 71.7227 0Z" fill="#330000"/>
<path d="M41.6744 50.3295H28.3477L25.6361 58.754C25.5992 58.9077 25.5098 59.0436 25.3834 59.1385C25.257 59.2333 25.1015 59.281 24.9437 59.2735H18.1937C17.8091 59.2735 17.6743 59.0618 17.7899 58.6384L29.3283 25.402C29.4436 25.0559 29.5591 24.6618 29.6744 24.2192C29.8255 23.4491 29.9028 22.6669 29.9052 21.8824C29.8973 21.8275 29.9023 21.7715 29.9198 21.7189C29.9373 21.6663 29.9669 21.6185 30.006 21.5793C30.0452 21.5401 30.093 21.5105 30.1456 21.493C30.1981 21.4754 30.2541 21.4704 30.3089 21.4782H39.4821C39.7508 21.4782 39.9047 21.5746 39.9436 21.7671L53.0395 58.6962C53.155 59.0813 53.0395 59.2738 52.6935 59.2735H45.1933C45.0645 59.2878 44.9349 59.2546 44.8288 59.1803C44.7226 59.106 44.6472 58.9955 44.6165 58.8696L41.6744 50.3295ZM30.4245 43.0591H39.5398L39.4098 42.63L39.2012 41.9506L39.0524 41.4735L38.8149 40.7222L38.31 39.1407L37.8659 37.7385L36.7126 34.0862C36.4255 33.1783 36.1501 32.2668 35.8862 31.3519L35.6752 30.6093L35.4286 29.7313L35.0524 28.3705L34.9818 28.1142H34.9244C34.6357 29.4992 34.2842 30.8704 33.8709 32.2234L33.0149 34.9773L32.5439 36.4987L32.0686 38.0389C31.9826 38.3171 31.8973 38.5923 31.8116 38.8641L31.5563 39.6699L31.3023 40.4568L31.0497 41.2242L30.7984 41.9725C30.7151 42.2188 30.6318 42.4617 30.5488 42.7016L30.4245 43.0591ZM60.8272 27.5947C60.2388 27.6183 59.652 27.5175 59.1053 27.2987C58.5585 27.08 58.0641 26.7483 57.6543 26.3253C57.2456 25.884 56.9281 25.3662 56.7202 24.8017C56.5122 24.2372 56.4179 23.6372 56.4425 23.0362C56.4216 22.4412 56.5264 21.8484 56.7501 21.2967C56.9738 20.7449 57.3113 20.2465 57.7406 19.8341C58.5687 19.039 59.6716 18.5941 60.8195 18.5919L60.9424 18.5933C62.3272 18.5933 63.4139 19.0065 64.2024 19.8338C64.6003 20.2636 64.9096 20.7677 65.1125 21.3172C65.3154 21.8667 65.408 22.4509 65.3849 23.0362C65.409 23.6396 65.3117 24.2418 65.0987 24.8069C64.8856 25.372 64.5611 25.8884 64.1446 26.3256C63.724 26.7403 63.2248 27.0665 62.6762 27.2852C62.1277 27.5039 61.5409 27.6106 60.9505 27.5991L60.8272 27.5947ZM56.8463 58.6962V31.1146C56.8463 30.7686 56.9995 30.5952 57.3079 30.5952H64.4043C64.7116 30.5952 64.8655 30.7682 64.8658 31.1146V58.6962C64.8658 59.0813 64.712 59.2738 64.4043 59.2735H57.3657C57.0378 59.2735 56.8651 59.1008 56.848 58.7553L56.8463 58.6962Z" fill="#FF9A00"/>
</svg>
