<svg width="82" height="86" viewBox="0 0 82 86" fill="none" xmlns="http://www.w3.org/2000/svg">
<path d="M5.15447 3.70247L52.5601 0.195083C58.383 -0.305514 59.8792 0.0320686 63.5404 2.69839L78.6729 13.3784C81.1691 15.2149 82 15.7158 82 17.7157V76.2878C82 79.9585 80.6691 82.1297 76.0114 82.4618L20.9613 85.8004C17.4657 85.9663 15.801 85.4657 13.9704 83.1283L2.82708 68.6119C0.828328 65.9398 0 63.9397 0 61.6023V9.53892C0 6.5379 1.3309 4.0346 5.15447 3.70247Z" fill="white"/>
<path d="M52.5601 0.195083L5.15447 3.70247C1.3309 4.0346 0 6.5379 0 9.53892V61.6026C0 63.94 0.828008 65.9398 2.82708 68.6119L13.9704 83.1283C15.801 85.4657 17.4657 85.9663 20.9613 85.8004L76.0114 82.4618C80.6662 82.1297 82 79.9585 82 76.2878V17.7157C82 15.8188 81.2517 15.2724 79.0499 13.6531L78.6703 13.3784L63.5404 2.69839C59.8792 0.0320686 58.3834 -0.305514 52.5601 0.195083ZM22.2063 16.7571C17.7114 17.0604 16.6918 17.1291 14.1389 15.049L7.64778 9.8765C6.98794 9.20711 7.31914 8.3715 8.98124 8.2056L54.5534 4.86989C58.3802 4.53519 60.3735 5.87108 61.87 7.0385L69.6859 12.7119C70.02 12.8804 70.8512 13.879 69.8515 13.879L22.789 16.717L22.2063 16.7571ZM16.966 75.7871V26.0638C16.966 23.8923 17.6313 22.8911 19.6246 22.7223L73.6783 19.5521C75.5117 19.3862 76.3401 20.5533 76.3401 22.7223V72.1135C76.3401 74.285 76.0057 76.1215 73.013 76.2878L21.2867 79.2916C18.294 79.4576 16.966 78.4593 16.966 75.7871ZM68.027 28.7298C68.3582 30.2319 68.027 31.734 66.5276 31.9057L64.0346 32.4005V69.1122C61.87 70.2793 59.8767 70.9461 58.2114 70.9461C55.5502 70.9461 54.8846 70.1105 52.8913 67.6101L36.588 41.9131V66.7748L41.745 67.9448C41.745 67.9448 41.745 70.949 37.5845 70.949L26.1128 71.6155C25.7788 70.9461 26.1128 69.2781 27.2756 68.9463L30.2708 68.1136V35.2417L26.1132 34.9041C25.7788 33.4023 26.6096 31.2334 28.9402 31.0646L41.2486 30.2351L58.2117 56.2639V33.2364L53.8881 32.7384C53.554 30.8987 54.8846 29.5628 56.5467 29.3998L68.0267 28.7301L68.027 28.7298Z" fill="black"/>
</svg>
